<!DOCTYPE svg PUBLIC "-//W3C//DTD SVG 1.1//EN" "http://www.w3.org/Graphics/SVG/1.1/DTD/svg11.dtd">
<!-- Uploaded to: SVG Repo, www.svgrepo.com, Transformed by: SVG Repo Mixer Tools -->
<svg fill="#ffffff" height="800px" width="800px" version="1.1" id="Capa_1" xmlns="http://www.w3.org/2000/svg" xmlns:xlink="http://www.w3.org/1999/xlink" viewBox="-48.31 -48.31 579.72 579.72" xml:space="preserve" stroke="#ffffff" stroke-width="34.7832" transform="rotate(45)">
<g id="SVGRepo_bgCarrier" stroke-width="0">
<path transform="translate(-48.31, -48.31), scale(18.11625)" d="M16,31.37847709336451C18.73997844840514,31.360000952845777,21.59801014438857,31.169426785753906,23.900368312107666,29.68383931507765C26.1642273055067,28.223093283845166,27.2110037605416,25.583576749050483,28.57854050877924,23.26222374875631C29.957545046542116,20.92140451645378,32.39298267563224,18.682362266335872,31.961681312748365,16C31.521637531576246,13.263266625777716,27.933602848693326,12.307615617638493,26.44151755589745,9.97158702835441C25.044527898448827,7.7844414311887355,25.59275149076415,4.510337375455002,23.5780369969351,2.8744548996717416C21.550205653693926,1.2279219698631045,18.61113080837453,1.4215365391218233,16.000000000000004,1.4934152364730835C13.438506533901425,1.5639275267905286,10.784145537105973,1.8532589346510464,8.65907286160759,3.285141221643128C6.585935310249894,4.682029418697866,5.277763284098336,6.963176239419033,4.405437991113029,9.305876503033291C3.611257329794613,11.438713025818075,3.958751704642269,13.724357895149387,3.9245820343494415,15.999999999999998C3.889875205457174,18.31141595678977,3.5419246055457982,20.595962709342164,4.202650146531845,22.811203113624018C4.9745512812656205,25.399186286215464,5.852655380632782,28.20388823430843,8.03787629359534,29.790802795641476C10.265619595337874,31.408597254534225,13.246864610002714,31.397041953377293,16,31.37847709336451" fill="#3e95b1" strokewidth="0"/>
</g>
<g id="SVGRepo_tracerCarrier" stroke-linecap="round" stroke-linejoin="round"/>
<g id="SVGRepo_iconCarrier"> <g> <path d="M434.55,418.7l-27.8-313.3c-0.5-6.2-5.7-10.9-12-10.9h-58.6c-0.1-52.1-42.5-94.5-94.6-94.5s-94.5,42.4-94.6,94.5h-58.6 c-6.2,0-11.4,4.7-12,10.9l-27.8,313.3c0,0.4,0,0.7,0,1.1c0,34.9,32.1,63.3,71.5,63.3h243c39.4,0,71.5-28.4,71.5-63.3 C434.55,419.4,434.55,419.1,434.55,418.7z M241.55,24c38.9,0,70.5,31.6,70.6,70.5h-141.2C171.05,55.6,202.65,24,241.55,24z M363.05,459h-243c-26,0-47.2-17.3-47.5-38.8l26.8-301.7h47.6v42.1c0,6.6,5.4,12,12,12s12-5.4,12-12v-42.1h141.2v42.1 c0,6.6,5.4,12,12,12s12-5.4,12-12v-42.1h47.6l26.8,301.8C410.25,441.7,389.05,459,363.05,459z"/> </g> </g>
</svg>